<svg xmlns="http://www.w3.org/2000/svg" xml:space="preserve" fill-rule="evenodd" stroke-linejoin="round" stroke-miterlimit="2" clip-rule="evenodd" viewBox="0 0 777 651">
  <g fill-rule="nonzero">
    <path fill="url(#a)" d="M249.707 439.268c-2.003-.677-3.944-1.613-5.96-2.426-1.997-.857-4.044-1.686-6.079-2.61-2-1.009-4.025-2.027-6.069-3.058-1.027-.519-2.056-1.041-3.092-1.566-1.045-.512-2.019-1.176-3.043-1.762-2.025-1.217-4.072-2.448-6.137-3.688-1.055-.597-2.053-1.29-3.046-2.014-.998-.709-2.003-1.424-3.011-2.145-1.011-.721-2.025-1.445-3.043-2.176-1.023-.727-2.059-1.448-3.005-2.299-1.944-1.651-3.904-3.312-5.882-4.991-7.665-6.924-15.1-14.724-21.584-23.646-6.554-8.857-12.505-18.542-17.688-28.846-10.275-20.651-17.679-43.484-23.583-66.868-2.959-11.69-5.6-23.532-8.253-35.343-1.332-5.898-2.663-11.794-4.063-17.642-.56-2.278-1.12-4.555-1.68-6.842-.734-3.005-1.543-6.028-2.374-9.065-.799-3.024-1.776-6.13-2.675-9.21-1.005-3.16-2.016-6.32-3.027-9.489-2.759-8.657-5.512-17.282-8.063-25.278 7.03 2.347 14.036 4.681 21.01 7.006 7.078 2.356 14.043 4.75 20.734 6.724 3.332.94 6.661 1.911 9.952 2.749 2.489.645 4.968 1.287 7.444 1.929 3.239.804 6.465 1.604 9.675 2.401 12.929 3.134 25.914 6.142 38.637 9.476 12.739 3.346 25.245 7.018 37.268 11.377 6.014 2.148 11.893 4.545 17.62 7.05 1.596.715 3.186 1.427 4.772 2.138 2.364 1.139 4.726 2.271 7.074 3.401 2.333 1.119 4.632 2.248 6.894 3.4 1.129.569 2.255 1.135 3.378 1.701l1.677.842c.529.291 1.176.534 1.584.876-1.478 6.373-3.089 12.819-4.278 18.772-.395 2.081-.793 4.153-1.185 6.212-.292 1.613-.566 3.216-.812 4.817-.986 6.395-1.646 12.728-1.919 18.927-.66 12.307.242 24.177 2.022 35.273 1.782 11.105 4.439 21.448 7.422 30.914 3.021 9.461 6.499 17.982 9.799 25.652 6.838 15.239 13.421 26.821 18.043 34.64 1.17 1.949 2.203 3.672 3.096 5.162.924 1.471 1.701 2.711 2.33 3.707 1.247 2.005 1.894 3.043 1.894 3.043s-.833-.889-2.445-2.607c-.802-.86-1.801-1.932-2.986-3.204-1.151-1.306-2.486-2.818-3.995-4.526-5.979-6.901-14.534-17.285-23.913-31.768-4.57-7.307-9.457-15.575-13.999-25.063-4.501-9.499-8.791-20.148-12.201-32.028-3.406-11.861-5.935-24.981-6.641-39.084-.411-6.997-.38-14.202.059-21.572.109-1.841.249-3.691.414-5.551.093-.926.18-1.859.27-2.792l.072-.699.012-.266.013-.468c-.003-.807-.007-1.623-.01-2.448-.211-.174-.665-.215-.967-.323-.333-.089-.653-.168-.964-.234l-.89-.187-.159-.041-.081-.022-.233-.082-.983-.354-1.972-.709c-5.311-1.831-10.755-3.596-16.398-5.178-11.255-3.21-23.154-5.943-35.56-8.543-12.428-2.593-25.347-5.038-38.746-7.869-3.363-.74-6.741-1.483-10.135-2.23l-2.486-.572c.025.019-.015.012-.018.022-.022.012-.038.028-.05.041-.05.054-.022.104.003.139l.034.032s-.006-.004-.015-.004l-.013.004c-.009-.004 0 .022-.012-.01l.507 2.202c1.415 6.183 2.697 12.284 3.929 18.3 2.454 12.026 4.7 23.706 7.108 34.995 4.788 22.555 10.406 43.563 18.115 62.332 7.799 18.648 17.738 35.017 29.743 47.975 11.914 12.845 25.724 22.71 39.455 29.915 13.728 7.253 27.173 12.272 39.222 16.008 12.07 3.719 22.784 6.183 31.612 7.875 2.203.469 4.293.845 6.259 1.174 1.973.345 3.814.667 5.525.968 3.441.518 6.353.958 8.708 1.312 4.728.63 7.214.962 7.214.962s-2.508.164-7.277.471c-2.392.089-5.353.196-8.853.326-1.752.009-3.64.025-5.659.035-2.022.025-4.178.019-6.458-.064-9.13-.158-20.336-.835-33.317-2.758-12.966-1.945-27.746-5.133-43.612-11.057Zm50.288-170.59c.357-4.931.973-9.912 1.801-14.907.833-5.114 2.009-10.105 3.244-15.017 5.068-19.652 12.416-39.404 21.671-59.144 4.716-9.814 9.808-19.664 15.514-29.339 1.368-2.458 2.893-4.827 4.364-7.24 1.478-2.376 3.002-4.881 4.467-7.171 2.928-4.57 5.842-9.166 8.72-13.787 1.702-2.777 3.397-5.544 5.083-8.299 1.126-1.898 2.246-3.789 3.366-5.675 1.63-2.894 3.304-5.699 4.875-8.66 3.207-5.759 6.24-12.003 9.342-18.079 3.039-6.003 6.063-11.978 9.068-17.912 3.319 6.737 6.623 13.436 9.908 20.104 3.301 6.75 6.517 13.218 9.852 19.265l2.517 4.495 2.414 4.222c.837 1.465 1.674 2.926 2.51 4.381 1.708 2.919 3.407 5.823 5.096 8.705 6.838 11.547 13.731 22.931 20.137 34.244 6.408 11.321 12.353 22.559 17.458 33.736 2.579 5.573 4.909 11.156 7.043 16.672.538 1.423 1.076 2.837 1.611 4.242.793 2.201 1.581 4.39 2.361 6.563.787 2.154 1.525 4.285 2.231 6.392.358 1.047.712 2.094 1.067 3.134l.522 1.547.262.772c.099.259.174.512.162.73-3.531 2.148-7.022 4.274-10.475 6.371-1.661 1.069-3.316 2.09-4.899 3.159-1.014.662-2.022 1.319-3.024 1.971-3.764 2.48-7.336 5.051-10.751 7.657-6.81 5.248-12.917 10.656-18.267 16.153-10.742 10.998-18.709 22.074-24.654 31.56-5.991 9.489-9.964 17.428-12.63 22.843-1.325 2.717-2.302 4.817-2.937 6.237-.659 1.417-.992 2.148-.992 2.148s.19-.782.557-2.303c.358-1.524.921-3.783 1.742-6.718 1.655-5.861 4.212-14.502 8.751-25.167 4.507-10.659 10.99-23.422 20.867-36.76 4.928-6.677 10.767-13.392 17.434-19.968 3.347-3.279 6.9-6.54 10.682-9.71.9-.746 1.799-1.496 2.707-2.248l1.011-.968c.619-.57 1.244-1.145 1.876-1.727.065-.029.046-.086-.003-.152l-.097-.177-.193-.355-.376-.692c-.246-.453-.492-.889-.744-1.3-.236-.399-.475-.797-.718-1.199-.585-1.17-1.173-2.35-1.764-3.533-2.464-4.88-5.102-9.824-7.97-14.802-5.684-9.986-12.148-20.158-19.095-30.656-6.949-10.504-14.406-21.321-21.968-32.809-1.876-2.897-3.768-5.816-5.668-8.755-.937-1.493-1.876-2.992-2.822-4.494-.04-.063-.152-.256-.137-.218l-.012-.003c-.013-.004-.013-.016-.019-.02l-.047-.031-.087-.054c-.218-.123-.323-.114-.376-.041-.047.25-.053.376-.041.433.007.016.01.029.016.035 0 0-.003.003.009.006h-.003c.006-.009.003-.012-.068.114l-.324.554-1.3 2.201c-1.742 2.939-3.531 5.848-5.329 8.752-3.002 4.827-6.038 9.552-9.081 14.201-1.44 2.249-2.871 4.489-4.299 6.725-1.409 2.22-2.868 4.4-4.181 6.658-5.487 8.894-10.48 17.905-15.221 26.853-9.283 17.972-17.154 35.998-23.015 53.476-1.44 4.384-2.778 8.625-3.789 12.762-1.051 4.248-1.931 8.464-2.6 12.655-.678 4.188-1.161 8.35-1.472 12.475-.174 2.068-.255 4.124-.249 6.123-.024 2.018-.052 4.02-.08 6.007-.032 1.989.211 3.963.295 5.927.059.984.118 1.964.177 2.938.047.974.106 1.949.262 2.91.255 1.929.504 3.843.753 5.741.133.949.227 1.901.385 2.837.187.933.371 1.863.554 2.79.364 1.856.725 3.697 1.08 5.516.357 1.828.902 3.593 1.334 5.371.464 1.768.887 3.529 1.369 5.26.541 1.714 1.079 3.409 1.608 5.086 4.296 13.42 9.647 25.249 14.87 35.393 5.257 10.14 10.35 18.664 14.749 25.49 2.196 3.416 4.215 6.417 5.969 9.017 1.802 2.562 3.295 4.773 4.552 6.513 2.519 3.492 3.845 5.329 3.845 5.329s-1.652-1.546-4.791-4.482c-1.562-1.48-3.431-3.374-5.674-5.595-2.203-2.258-4.729-4.883-7.507-7.917-5.553-6.06-12.064-13.79-18.995-23.358-6.896-9.583-14.191-21.068-20.612-34.865-.794-1.733-1.599-3.485-2.408-5.257-.756-1.802-1.45-3.659-2.187-5.525-.703-1.879-1.518-3.745-2.15-5.706-.628-1.968-1.26-3.957-1.9-5.962-.318-1.009-.638-2.021-.962-3.04-.292-1.028-.522-2.081-.79-3.131-.51-2.107-1.03-4.235-1.552-6.386-.286-1.069-.473-2.17-.65-3.28-.187-1.107-.374-2.221-.56-3.34-.336-2.246-.825-4.495-1.03-6.807-.199-2.318-.401-4.659-.603-7.015-.228-2.375-.352-4.738-.374-7.123-.09-4.773.034-9.647.402-14.572Zm265.182-59.906c11.361-2.963 22.881-5.601 34.344-8.274 5.733-1.338 11.464-2.682 17.144-4.099 2.398-.614 4.803-1.23 7.211-1.844 2.924-.727 5.873-1.607 8.822-2.41 2.99-.908 5.933-1.756 8.997-2.768 3.074-1.012 6.15-2.027 9.233-3.042 7.886-2.604 15.747-5.194 23.484-7.746-2.249 6.983-4.492 13.945-6.729 20.878-2.252 7.019-4.582 13.971-6.486 20.622-.911 3.321-1.86 6.63-2.669 9.907-.65 2.587-1.297 5.165-1.944 7.739-.775 3.22-1.546 6.424-2.312 9.612-3.027 12.842-5.904 25.74-9.093 38.398-3.192 12.665-6.691 25.098-10.794 37.064-2.029 5.987-4.275 11.842-6.617 17.557-.703 1.686-1.406 3.365-2.106 5.039-1.067 2.378-2.131 4.747-3.189 7.107-1.051 2.343-2.109 4.659-3.186 6.936-1.079 2.246-2.087 4.618-3.197 6.687-6.291-1.541-12.606-3.198-18.516-4.46-2.088-.424-4.163-.848-6.225-1.269-1.587-.31-3.161-.597-4.735-.863-6.296-1.063-12.506-1.768-18.597-2.126-12.107-.692-23.779.064-34.717 1.765-10.944 1.699-21.144 4.292-30.486 7.234-9.33 3.005-17.757 6.43-25.338 9.72-15.066 6.809-26.533 13.388-34.276 18.013-1.932 1.17-3.643 2.204-5.117 3.102-1.459.924-2.688 1.702-3.677 2.328-1.988 1.253-3.015 1.901-3.015 1.901s.884-.841 2.592-2.464c.858-.806 1.922-1.812 3.188-3.004 1.297-1.161 2.8-2.506 4.499-4.024 6.859-6.012 17.165-14.612 31.516-24.003 7.232-4.583 15.43-9.442 24.799-13.987 9.392-4.478 19.913-8.723 31.629-12.063 11.7-3.34 24.622-5.725 38.478-6.395 6.884-.326 13.974-.241 21.197.275 1.808.129 3.621.284 5.444.468.909.098 1.82.196 2.735.294l.678.076.205.006.408.01c.765-.004 1.537-.004 2.321-.007.161-.208.192-.654.283-.949.081-.325.149-.642.208-.945l.165-.87c.009-.067.028-.18.053-.263l.308-.923.662-1.98c1.718-5.323 3.376-10.776 4.872-16.416 3.036-11.257 5.646-23.114 8.135-35.469 2.489-12.364 4.837-25.231 7.584-38.559.685-3.331 1.4-6.693 2.156-10.08l.467-2.107-.019-.038c-.012-.019-.025-.035-.037-.044-.05-.045-.1-.019-.131.006l-.025.029s.003-.007.003-.013l-.006-.016-.006-.006s-.009 0 .022-.01l-.455.108-1.132.269c-6.016 1.436-11.952 2.732-17.81 3.972-11.715 2.48-23.082 4.729-34.076 7.142-21.957 4.814-42.526 10.245-60.842 17.922-9.146 3.836-17.723 8.179-25.693 12.993-7.858 4.95-15.063 10.387-21.617 16.197-12.739 11.725-22.448 25.478-29.827 39.059-7.283 13.677-12.363 27.113-16.167 39.17-3.79 12.076-6.331 22.814-8.098 31.667-.485 2.208-.868 4.305-1.223 6.282-.36 1.973-.7 3.824-1.011 5.538-.553 3.451-1.02 6.373-1.396 8.736-.679 4.748-1.036 7.243-1.036 7.243s-.122-2.524-.355-7.322c-.087-2.404-.128-5.377-.199-8.907.012-1.762.025-3.659.037-5.69.013-2.034.038-4.2.15-6.493.276-9.179 1.088-20.439 3.145-33.464 2.078-13.006 5.4-27.831 11.432-43.693 6.15-15.751 15.19-32.645 28.906-48.111 6.894-7.522 14.705-14.679 23.353-21.233 8.723-6.402 18.208-12.199 28.256-17.305 20.125-10.206 42.346-17.389 65.061-23.317ZM267.691 473.794c-6.589-1.502-16.316-3.944-28.576-8.435-12.173-4.624-27.027-11.222-42.672-22.191-7.811-5.456-15.803-12.048-23.521-19.832-3.858-3.893-7.675-8.081-11.389-12.566-.768-.927-1.543-1.863-2.324-2.806-.516-.617-1.036-1.236-1.561-1.863-.993-1.198-1.935-2.385-2.825-3.552-.059-.047-.087-.18-.168-.152l-.258.127-.517.256-1.023.509c-.678.336-1.347.671-1.994 1.025-1.294.68-2.598 1.392-3.743 2.069-4.806 2.486-9.668 5.162-14.558 8.068-9.803 5.763-19.758 12.342-30.027 19.452-10.275 7.114-20.842 14.797-32.091 22.663-1.413.98-2.831 1.964-4.256 2.951l-2.153 1.48-1.035.709-.268.221c-.672.554-1.347 1.11-2.025 1.67-1.263 1.037-2.355 1.91-3.285 2.616 2.445.933 4.442 1.787 6.066 2.464l.591.243 3.086 1.838c2.159 1.306 4.321 2.619 6.499 3.935 4.28 2.641 8.595 5.304 12.941 7.983 17.231 10.691 34.574 21.35 52.707 30.26 9.068 4.406 18.314 8.35 27.74 11.573 2.361.743 4.716 1.61 7.096 2.274 2.383.655 4.765 1.309 7.158 1.967 2.401.522 4.806 1.047 7.217 1.572 1.201.301 2.414.459 3.624.646l3.634.569c9.696 1.388 19.548 1.724 29.22.98 9.715-.885 19.449-3.023 29.133-6.171 16.146-5.209 31.641-13.499 46.613-22.874 14.957-9.536 29.386-20.202 43.804-31.088 3.649-2.739 7.277-5.466 10.888-8.177 3.637-2.742 7.327-5.421 10.985-8.093 3.649-2.679 7.373-5.273 11.028-7.886 3.717-2.558 7.419-5.101 11.1-7.632 14.854-9.991 29.901-19.23 45.169-27.362 15.262-8.132 30.751-15.151 46.315-20.717 15.576-5.567 31.171-9.701 46.61-12.162 15.399-2.543 30.502-3.324 44.908-2.796 14.419.535 28.135 2.575 40.918 5.513 25.602 5.918 47.272 16.042 64.824 26.455 8.807 5.203 16.686 10.466 23.757 15.511 1.285.914 2.517 1.812 3.752 2.707 8.393-29.538 12.91-60.75 12.91-93.037C717.715 149.853 570.329 0 388.517 0 206.706 0 59.319 149.853 59.319 334.708c0 30.962 4.15 60.934 11.893 89.39 6.244-3.751 12.441-7.448 18.597-10.994 11.146-6.424 22.165-12.396 33.112-17.542 5.456-2.596 10.913-4.962 16.32-7.123 3.96-1.698 7.761-3.052 11.522-4.421 1.864-.69 3.727-1.345 5.569-1.983.914-.323 1.826-.639 2.737-.959l1.357-.474.675-.234c.217-.06.382.038.572.05 2.243 3.85 4.483 7.636 6.676 11.251 1.073 1.803 2.24 3.599 3.282 5.219.89 1.344 1.773 2.679 2.65 4.001 2.984 4.453 6.079 8.65 9.249 12.607 6.349 7.923 13 14.777 19.72 20.724 13.426 11.921 26.843 20.04 38.058 26.056 11.308 5.902 20.532 9.647 26.81 12.063 3.135 1.228 5.559 2.072 7.182 2.648 1.627.579 2.458.876 2.458.876s-.865-.168-2.557-.497c-1.692-.325-4.218-.806-7.51-1.572Z"/>
    <path fill="#00b4e2" d="M758.834 548.681c-5.763-5.057-12.838-11.22-21.307-18.122-4.094-3.33-8.525-6.841-13.303-10.445-7.353-4.585-15.481-9.42-24.391-14.218-5.933-3.127-12.168-6.323-18.813-9.234-3.288-1.532-6.727-2.868-10.19-4.302-1.746-.683-3.527-1.31-5.307-1.979-1.777-.684-3.596-1.303-5.442-1.892-7.329-2.498-15.045-4.607-23.057-6.337-8.013-1.731-16.328-3.129-24.906-3.907-17.142-1.623-35.28-1.293-53.761 1.53-2.303.387-4.616.78-6.941 1.172-2.322.396-4.634.935-6.964 1.391-2.333.43-4.65 1.108-6.99 1.649-2.33.607-4.698 1.061-7.02 1.793-2.336.671-4.678 1.344-7.029 2.021-2.359.635-4.671 1.509-7.022 2.252-4.71 1.46-9.356 3.281-14.066 4.991-9.332 3.703-18.512 7.538-27.358 11.896-4.471 2.049-8.789 4.401-13.142 6.556-4.282 2.332-8.588 4.526-12.76 6.92-16.774 9.388-32.621 19.285-47.569 29.106-14.93 9.765-29.077 19.58-42.823 28.189-13.722 8.625-26.965 16.114-39.534 22.007-12.56 5.914-24.428 10.191-35.051 13.058-5.377 1.237-10.322 2.501-14.997 3.121-1.156.189-2.29.369-3.399.547-.551.089-1.099.178-1.641.264-.544.051-1.084.103-1.619.152-2.127.188-4.151.368-6.069.536-.956.082-1.887.16-2.786.238-.91.012-1.788.021-2.641.032-1.698.015-3.286.032-4.765.049-2.937.113-5.43-.157-7.433-.286-3.996-.297-6.097-.453-6.097-.453s2.098-.154 6.091-.453c1.989-.156 4.448-.236 7.326-.746 1.437-.209 2.986-.436 4.639-.678.827-.119 1.678-.244 2.555-.371.869-.19 1.764-.386 2.684-.587 1.837-.403 3.774-.826 5.811-1.275.506-.113 1.021-.225 1.539-.341.513-.151 1.032-.301 1.558-.454 1.048-.304 2.122-.62 3.217-.937 4.412-1.137 9.044-2.935 14.036-4.695 9.882-3.921 20.765-9.209 32.274-16.048 11.52-6.819 23.653-15.153 36.42-24.611 12.784-9.432 26.161-20.1 40.863-30.906 14.648-10.802 30.48-21.68 47.636-31.952 4.259-2.612 8.704-5.029 13.121-7.558 4.518-2.373 8.988-4.906 13.675-7.149 9.243-4.722 18.969-8.894 28.923-12.834 20.031-7.621 40.454-13.092 60.721-15.55 20.234-2.485 41.518-2.802 59.983-.02 9.241 1.359 17.89 1.341 26.123 3.203 6.983 1.579 16.605 2.812 31.626 7.436 17.727 5.457 35.09 14.384 39.221 16.564 12.909 6.811 21.512 12.643 27.699 16.78 6.187 4.135 9.438 6.311 9.438 6.311s-2.904-2.631-8.438-7.635c-5.554-4.986-13.703-12.379-24.544-21.571-4.469-3.807-9.456-7.897-14.923-12.196-3.473-2.169-7.127-4.405-10.986-6.707-7.306-4.355-15.344-8.85-24.138-13.198-8.791-4.347-18.35-8.545-28.677-12.121-10.343-3.56-21.481-6.623-33.328-8.626-23.653-4.107-50.126-4.401-77.468 1.187-13.645 2.7-27.602 6.882-41.554 12.302-13.967 5.431-27.983 12.137-41.996 19.887-14.021 7.746-28.042 16.531-42.135 26.076-3.508 2.422-7.038 4.857-10.58 7.303-3.524 2.517-7.086 4.988-10.625 7.57-3.545 2.586-7.106 5.183-10.686 7.793-3.604 2.662-7.227 5.337-10.863 8.02-14.669 10.845-30.154 21.956-47.044 32.159-16.977 10.071-35.476 19.394-56.112 25.212-12.349 3.495-25.168 5.737-38.07 6.266-12.957.388-25.624-.773-37.848-3.249l-4.558-.987c-1.515-.332-3.035-.645-4.506-1.089-2.957-.841-5.911-1.676-8.852-2.511-2.873-.987-5.743-1.97-8.601-2.95-2.848-1.005-5.583-2.196-8.358-3.289-10.989-4.584-21.334-9.914-31.132-15.608-19.533-11.469-36.911-24.293-53.218-36.528-4.053-3.037-8.075-6.054-12.067-9.044-1.98-1.471-3.955-2.932-5.919-4.389l-3.108-2.269c-1.859-1.298-3.712-2.59-5.565-3.885-3.706-2.561-7.431-5.044-11.256-7.461-3.817-2.423-7.819-4.762-11.76-7.124-3.65-2.166-7.285-4.323-10.905-6.472 7.605 4.516 59.094 49.078 63.147 52.115 16.307 12.232 33.193 26.327 50.503 41.028 10.387 8.822 105.24 99.062 194.889 79.681 70.357-15.211 94.893-63.775 191.108-110.961 22.132-10.854 38.798-19.756 66.006-23.616 11.471-1.628 16.221-2.299 30.5-4.176 20.7-2.722 38.638-.869 44.622-.82 18.23.15 55.167 10.208 62.39 12.828 11.689 4.239 21.272 9.354 30.563 14.923 9.252 5.547 16.816 11.058 23.147 15.325 12.66 8.529 19.687 13.263 19.687 13.263s-6.245-5.725-17.728-15.88Z"/>
  </g>
  <defs>
    <linearGradient id="a" x1="0" x2="1" y1="0" y2="-.0188396" gradientTransform="matrix(194.43 319.906 -249.756 156.918 193.138 80.4822)" gradientUnits="userSpaceOnUse">
      <stop offset="0" stop-color="#c53030"/>
      <stop offset=".44" stop-color="#d14b32"/>
      <stop offset="1" stop-color="#ed8936"/>
    </linearGradient>
  </defs>
</svg>
